<svg xmlns="http://www.w3.org/2000/svg" width="232" height="60" viewBox="0 0 232 60">
    <defs>
        <linearGradient id="a" x1="-59.792%" x2="82.814%" y1="-22.818%" y2="64.115%">
            <stop offset="0%" stop-color="#A0003B"/>
            <stop offset="10.27%" stop-color="#980844"/>
            <stop offset="27.36%" stop-color="#841F5E"/>
            <stop offset="49.16%" stop-color="#624487"/>
            <stop offset="74.53%" stop-color="#3377C0"/>
            <stop offset="100%" stop-color="#00AFFF"/>
        </linearGradient>
        <linearGradient id="b" x1="14.432%" x2="91.954%" y1="88.957%" y2="11.298%">
            <stop offset="0%" stop-color="#A0003B"/>
            <stop offset="10.27%" stop-color="#980844"/>
            <stop offset="27.36%" stop-color="#841F5E"/>
            <stop offset="49.16%" stop-color="#624487"/>
            <stop offset="74.53%" stop-color="#3377C0"/>
            <stop offset="99.44%" stop-color="#00AFFF"/>
        </linearGradient>
        <linearGradient id="c" x1="32.952%" x2="101.882%" y1="76.316%" y2="4.539%">
            <stop offset="0%" stop-color="#A0003B"/>
            <stop offset="10.27%" stop-color="#980844"/>
            <stop offset="27.36%" stop-color="#841F5E"/>
            <stop offset="49.16%" stop-color="#624487"/>
            <stop offset="74.53%" stop-color="#3377C0"/>
            <stop offset="99.44%" stop-color="#00AFFF"/>
        </linearGradient>
        <linearGradient id="d" x1=".002%" x2="99.885%" y1="50.168%" y2="50.168%">
            <stop offset="0%" stop-color="#A0003B"/>
            <stop offset="10.27%" stop-color="#980844"/>
            <stop offset="27.36%" stop-color="#841F5E"/>
            <stop offset="49.16%" stop-color="#624487"/>
            <stop offset="74.53%" stop-color="#3377C0"/>
            <stop offset="99.44%" stop-color="#00AFFF"/>
        </linearGradient>
        <linearGradient id="e" x1="-.044%" x2="99.856%" y1="50.076%" y2="50.076%">
            <stop offset="0%" stop-color="#A0003B"/>
            <stop offset="10.27%" stop-color="#980844"/>
            <stop offset="27.36%" stop-color="#841F5E"/>
            <stop offset="49.16%" stop-color="#624487"/>
            <stop offset="74.53%" stop-color="#3377C0"/>
            <stop offset="99.44%" stop-color="#00AFFF"/>
        </linearGradient>
        <linearGradient id="f" x1="18.911%" x2="82.985%" y1="152.666%" y2="-37.013%">
            <stop offset="0%" stop-color="#A0003B"/>
            <stop offset="10.27%" stop-color="#980844"/>
            <stop offset="27.36%" stop-color="#841F5E"/>
            <stop offset="49.16%" stop-color="#624487"/>
            <stop offset="74.53%" stop-color="#3377C0"/>
            <stop offset="99.44%" stop-color="#00AFFF"/>
        </linearGradient>
        <linearGradient id="g" x1="-170.862%" x2="154.06%" y1="116.647%" y2="18.585%">
            <stop offset="0%" stop-color="#A0003B"/>
            <stop offset="10.27%" stop-color="#980844"/>
            <stop offset="27.36%" stop-color="#841F5E"/>
            <stop offset="49.16%" stop-color="#624487"/>
            <stop offset="74.53%" stop-color="#3377C0"/>
            <stop offset="99.44%" stop-color="#00AFFF"/>
        </linearGradient>
        <linearGradient id="h" x1="-1.281%" x2="101.281%" y1="50%" y2="50%">
            <stop offset="0%" stop-color="#A0003B"/>
            <stop offset="10.27%" stop-color="#980844"/>
            <stop offset="27.36%" stop-color="#841F5E"/>
            <stop offset="49.16%" stop-color="#624487"/>
            <stop offset="74.53%" stop-color="#3377C0"/>
            <stop offset="99.44%" stop-color="#00AFFF"/>
        </linearGradient>
        <linearGradient id="i" x1="17.901%" x2="132.583%" y1="-45.931%" y2="124.816%">
            <stop offset="0%" stop-color="#A0003B"/>
            <stop offset="19.02%" stop-color="#980844"/>
            <stop offset="34.43%" stop-color="#841F5E"/>
            <stop offset="54.09%" stop-color="#624487"/>
            <stop offset="76.97%" stop-color="#3377C0"/>
            <stop offset="100%" stop-color="#00AFFF"/>
        </linearGradient>
    </defs>
    <g fill="none" fill-rule="evenodd">
        <path fill="#FFF" d="M100.229 38.395c-.42.628-.93 1.221-1.525 1.78a9.688 9.688 0 0 1-2.069 1.465c-.783.418-1.648.75-2.594.994-.947.244-1.981.366-3.103.366-1.87 0-3.6-.326-5.19-.977-1.589-.65-2.956-1.552-4.102-2.703-1.145-1.151-2.039-2.518-2.682-4.1-.643-1.58-.964-3.313-.964-5.197 0-1.883.327-3.616.982-5.197.654-1.582 1.56-2.948 2.717-4.1 1.157-1.15 2.524-2.052 4.102-2.703 1.578-.65 3.29-.976 5.137-.976.911 0 1.805.093 2.682.279.876.186 1.7.447 2.472.784.771.338 1.472.745 2.103 1.221a7.155 7.155 0 0 1 1.578 1.622l-2.104 1.535a6.254 6.254 0 0 0-1.034-1.186 7.035 7.035 0 0 0-1.525-1.046 9.57 9.57 0 0 0-1.91-.733 8.52 8.52 0 0 0-2.227-.279c-1.613 0-3.056.29-4.33.872-1.274.582-2.355 1.367-3.244 2.355a10.277 10.277 0 0 0-2.033 3.436 12.09 12.09 0 0 0-.701 4.116c0 1.442.24 2.814.718 4.117a10.517 10.517 0 0 0 2.052 3.436c.888.988 1.969 1.773 3.243 2.354 1.274.582 2.705.872 4.295.872 1.426 0 2.781-.29 4.067-.872 1.285-.581 2.36-1.511 3.225-2.79l1.964 1.255zm20.09-4.186c0 1.233-.216 2.372-.649 3.419a8.22 8.22 0 0 1-1.805 2.72 8.187 8.187 0 0 1-2.77 1.797c-1.075.43-2.256.646-3.541.646-1.262 0-2.431-.215-3.506-.646a8.187 8.187 0 0 1-2.77-1.796 8.22 8.22 0 0 1-1.806-2.721c-.432-1.047-.649-2.186-.649-3.419 0-1.232.217-2.372.65-3.418a8.22 8.22 0 0 1 1.805-2.721 8.187 8.187 0 0 1 2.77-1.797c1.075-.43 2.244-.645 3.506-.645 1.285 0 2.466.215 3.54.645a8.187 8.187 0 0 1 2.77 1.797 8.22 8.22 0 0 1 1.806 2.72c.433 1.047.65 2.187.65 3.42zm-2.524 0c0-.907-.146-1.761-.439-2.564a6.275 6.275 0 0 0-1.244-2.093 5.888 5.888 0 0 0-1.964-1.412c-.771-.35-1.636-.524-2.594-.524-.959 0-1.818.175-2.577.524-.76.348-1.409.82-1.946 1.412a6.275 6.275 0 0 0-1.245 2.093 7.435 7.435 0 0 0-.438 2.564c0 .907.146 1.762.438 2.564.292.803.707 1.5 1.245 2.093a5.729 5.729 0 0 0 1.946 1.396c.76.337 1.618.505 2.577.505.958 0 1.823-.168 2.594-.505a5.687 5.687 0 0 0 1.964-1.396 6.275 6.275 0 0 0 1.244-2.093 7.435 7.435 0 0 0 .439-2.564zm10.062 8.163h-2.384V26.047h2.384v16.325zm.491-22.605c0 .489-.175.89-.526 1.204-.35.314-.736.47-1.157.47-.42 0-.806-.156-1.157-.47a1.543 1.543 0 0 1-.526-1.204c0-.488.176-.89.526-1.203.35-.314.736-.471 1.157-.471.42 0 .807.157 1.157.471.35.314.526.715.526 1.203zm7.994 6.28a31.424 31.424 0 0 1 .14 2.79h.07c.468-.953 1.228-1.727 2.28-2.32a6.682 6.682 0 0 1 3.33-.89c2.08 0 3.64.617 4.681 1.85 1.04 1.232 1.56 2.86 1.56 4.883v10.012h-2.384v-9.035c0-.86-.07-1.64-.21-2.337-.14-.698-.38-1.297-.72-1.797-.338-.5-.794-.889-1.366-1.168-.573-.28-1.292-.419-2.157-.419-.63 0-1.244.128-1.84.384a4.521 4.521 0 0 0-1.596 1.169c-.467.523-.841 1.186-1.122 1.988-.28.802-.42 1.75-.42 2.843v8.372h-2.385V29.64c0-.442-.011-1.012-.035-1.71a38.021 38.021 0 0 0-.105-1.883h2.28zm18.548 0l3.961 13.255h.07l4.418-13.255h2.314l4.488 13.255h.07l3.927-13.255h2.525l-5.19 16.325h-2.594l-4.383-13.22h-.07l-4.312 13.22h-2.595l-5.189-16.325h2.56zm38.357 6.906c-.07-1.534-.567-2.808-1.49-3.82-.924-1.01-2.239-1.517-3.945-1.517-.795 0-1.53.146-2.209.436a5.898 5.898 0 0 0-3.015 2.895 5.49 5.49 0 0 0-.526 2.006h11.185zm2.419.768v.523c0 .186-.012.384-.035.593h-13.604c.023.814.187 1.582.49 2.303.305.72.726 1.348 1.263 1.883.538.535 1.169.96 1.893 1.274.725.313 1.508.47 2.35.47 1.238 0 2.308-.284 3.208-.854.9-.57 1.583-1.227 2.05-1.971l1.789 1.395c-.982 1.233-2.063 2.116-3.243 2.651a9.108 9.108 0 0 1-3.804.803c-1.216 0-2.344-.215-3.384-.646a7.928 7.928 0 0 1-2.682-1.796 8.507 8.507 0 0 1-1.77-2.721c-.433-1.047-.65-2.186-.65-3.419 0-1.232.211-2.372.632-3.418a8.272 8.272 0 0 1 1.753-2.721 8.063 8.063 0 0 1 2.63-1.797c1.005-.43 2.091-.645 3.26-.645 1.286 0 2.42.215 3.401.645.982.43 1.8 1.012 2.454 1.744a7.484 7.484 0 0 1 1.49 2.564c.34.977.509 2.024.509 3.14zm7.573 5.895v2.756h-2.384V16h2.384v12.872h.07a6.764 6.764 0 0 1 2.735-2.424 7.84 7.84 0 0 1 3.471-.82c1.286 0 2.449.22 3.489.663a7.95 7.95 0 0 1 2.664 1.814 8.187 8.187 0 0 1 1.718 2.72c.41 1.047.614 2.175.614 3.384 0 1.21-.205 2.338-.614 3.384a8.187 8.187 0 0 1-1.718 2.721 7.95 7.95 0 0 1-2.664 1.814c-1.04.442-2.203.663-3.489.663a7.98 7.98 0 0 1-3.47-.803 6.721 6.721 0 0 1-2.736-2.372h-.07zm12.237-5.407c0-.907-.14-1.761-.421-2.564a6.198 6.198 0 0 0-1.21-2.093 5.702 5.702 0 0 0-1.946-1.412c-.771-.35-1.648-.524-2.63-.524-.91 0-1.752.169-2.524.506a6.06 6.06 0 0 0-1.998 1.395 6.44 6.44 0 0 0-1.315 2.093 7.037 7.037 0 0 0-.473 2.6c0 .93.157 1.796.473 2.598a6.24 6.24 0 0 0 1.315 2.076 6.189 6.189 0 0 0 1.998 1.378 6.233 6.233 0 0 0 2.525.505c.981 0 1.858-.168 2.63-.505a5.51 5.51 0 0 0 1.945-1.396c.526-.593.93-1.29 1.21-2.093.28-.802.42-1.657.42-2.564zM224.59 16.049h-1.73V21h-1.103v-4.951H220V15h4.59v1.049zM232 21h-1.117v-4.47h-.027L229.235 21h-.75l-1.634-4.47h-.027V21h-1.103v-6h1.607l1.54 4.252L230.405 15H232v6z"/>
        <g transform="translate(-12 -12)">
            <path fill="url(#a)" fill-rule="nonzero" d="M58.159 28.383L56.279 26 55 26.925l1.918 2.418-.64.498c.301.071.79.178 1.28.498.187.143.338.285.488.392l.301.355c0 .036.038.071.038.071l2.745 3.486c.15.178.414.498.564 1.031.075.214.075.463.113.64-.263.712-.075 1.53.526 2.1.828.782 2.22.782 3.046 0a1.982 1.982 0 0 0 0-2.882 2.23 2.23 0 0 0-1.353-.605 2.8 2.8 0 0 1-.865-.426c-.038 0-.038-.036-.076-.036l-3.948-4.98-.113-.32a3.3 3.3 0 0 1-.075-1.315l-.79.533z"/>
            <path fill="url(#b)" fill-rule="nonzero" d="M53.152 23.88c0-.038-2.128 1.421-5.301.71v.038l-9.072-1.459C36.389 22.496 35.568 21 35.568 21l-.41 1.57-1.457-.224L20 39.214l5.301 13.912c.71 2.618-.261 4.19-.261 4.19l1.717-.412 1.008 2.655L49.12 63 62 50.808l-1.083-1.122-12.32 11.668-19.712-3.179-.634-1.608.97-.224s-.97-.599-1.792-1.945l-5.674-14.922 12.581-15.447.41.075-.298 1.085s1.083-.599 2.688-.71l12.544 2.019c1.195.374 1.904.972 2.277 1.421.15.337.374.673.672.972a3.24 3.24 0 0 0 4.592 0 3.255 3.255 0 0 0 0-4.6c-1.12-1.084-2.837-1.234-4.069-.411z"/>
            <path fill="url(#c)" fill-rule="nonzero" d="M57.006 25L24.861 37.186a3.194 3.194 0 0 0-.535-.663c-1.453-1.399-3.822-1.399-5.237 0-1.452 1.4-1.452 3.682 0 5.044.688.663 1.567.994 2.485 1.031.23.147.497.331.726.59.382.404.65 1.214.726 1.472l1.3-.92c-.115-.222-.268-.921-.306-1.473v-.442c.038 0 .038-.037.077-.037.267 0 .535.037.84.11.42.111.727.258.918.405l21.787 16.715c.038.074.114.11.153.184.305.479.42.957.496 1.215l.42-.626L51.58 62l.611-4.013.841.11c-.153-.257-.42-.662-.497-1.214-.076-.516 0-.92.077-1.142h-.077l3.517-23.856C56.7 29.86 58 29.123 58 29.123l-1.49-.294.496-3.829zm-3.363 3.166s.993 1.51.764 3.792l-.076.59c-.039.147-.077.33-.115.478h.038l-3.478 23.488a.275.275 0 0 0-.077.148c-.305.478-.688.81-.917.957l.841.11-.191 1.363-.765-.59.497-.736a3.86 3.86 0 0 1-1.376-.11c-.229-.074-.42-.148-.573-.258L26.81 41.052v-.037c-.038-.037-.114-.074-.153-.11l-.496-.405c-.115-.11-.192-.185-.306-.332a2.649 2.649 0 0 1-.459-.847 2.378 2.378 0 0 0 0-.736l29.66-11.229-.152 1.031-1.261-.22z"/>
            <path fill="url(#d)" fill-rule="nonzero" d="M24.17 37l10.748-12.956.415.074-.302 1.077s1.094-.594 2.716-.705l12.673 2.004c1.207.371 1.923.965 2.3 1.41.151.335.377.67.68.966a3.315 3.315 0 0 0 4.638 0 3.19 3.19 0 0 0 0-4.566c-1.094-1.077-2.79-1.225-4.073-.446v-.037s-2.15 1.448-5.356.743v.037l-9.165-1.448C37.03 22.485 36.201 21 36.201 21l-.453 1.596-1.47-.222L23 35.998c.528.297.905.557 1.17 1.002z"/>
            <path fill="url(#e)" fill-rule="nonzero" d="M61.863 49.888L49.36 61.379 29.35 58.25l-.644-1.584.985-.221s-.985-.59-1.819-1.915L23.402 43c-.417.295-.947.516-1.402.7l3.751 9.576c.72 2.579-.265 4.125-.265 4.125l1.743-.405 1.023 2.615L49.927 63 63 50.993l-1.137-1.105z"/>
            <path fill="url(#f)" fill-rule="nonzero" d="M61.058 48.824c-.344.33-.573.697-.725 1.136-.191.22-.458.513-.84.77-.458.293-1.145.476-1.145.476L29 58.534 29.382 60l30.34-7.548h.382c.305.037.534.11.763.183l.153.147a2.988 2.988 0 0 0 4.121 0 2.709 2.709 0 0 0 0-3.958c-1.068-1.099-2.938-1.099-4.083 0z"/>
            <path fill="url(#g)" fill-rule="nonzero" d="M32.936 19.851a2.812 2.812 0 0 0-.155 3.898c.194.34.388.794.543 1.286.155.454.116 1.779.155 2.233l-5.588 26.146c-.698 1.778-1.824 2.459-1.824 2.459-.077.076-.155.113-.194.19a2.827 2.827 0 0 0 0 4.086 3.005 3.005 0 0 0 4.191 0 2.85 2.85 0 0 0 .039-4.049 7.072 7.072 0 0 1-.388-3.557l5.55-25.957c.232-.605.62-1.437 1.28-2.08.077-.076.155-.19.271-.303a1.93 1.93 0 0 0 .31-.265 2.827 2.827 0 0 0 0-4.087 3.005 3.005 0 0 0-4.19 0z"/>
            <circle cx="42" cy="42" r="29" stroke="url(#h)" stroke-width="2" transform="rotate(-45 42 42)"/>
            <path fill="url(#i)" fill-rule="nonzero" d="M48.093 59.018c-1.992 1.668-.69 4.11-.498 4.305.153.232.306.465.498.659 1.34 1.357 3.523 1.357 4.902 0 1.34-1.357 1.34-3.568 0-4.964-1.34-1.357-3.524-1.357-4.902 0z"/>
        </g>
    </g>
</svg>
